<?xml version="1.0" encoding="UTF-8"?> <svg xmlns="http://www.w3.org/2000/svg" width="118" height="118" viewBox="0 0 118 118" fill="none"> <g clip-path="url(#clip0_790_97)"> <path d="M58.8904 117.781C91.4147 117.781 117.781 91.4147 117.781 58.8904C117.781 26.3661 91.4147 0 58.8904 0C26.3662 0 0 26.3661 0 58.8904C0 91.4147 26.3662 117.781 58.8904 117.781Z" fill="white"></path> <path d="M33.1307 81.1213C32.1544 82.0976 32.1544 83.6805 33.1307 84.6569C34.107 85.6332 35.6899 85.6332 36.6662 84.6569L33.1307 81.1213ZM85.395 34.8926C85.395 33.5119 84.2757 32.3926 82.895 32.3926H60.395C59.0143 32.3926 57.895 33.5119 57.895 34.8926C57.895 36.2733 59.0143 37.3926 60.395 37.3926H80.395V57.3926C80.395 58.7733 81.5143 59.8926 82.895 59.8926C84.2757 59.8926 85.395 58.7733 85.395 57.3926V34.8926ZM36.6662 84.6569L84.6628 36.6603L81.1272 33.1248L33.1307 81.1213L36.6662 84.6569Z" fill="#E75A45"></path> </g> <defs> <clipPath id="clip0_790_97"> <rect width="118" height="118" fill="white"></rect> </clipPath> </defs> </svg> 